0
SECTION
2
HEADER
9
$INSUNITS
70
4
9
$ACADVER
1
AC1014
9
$HANDSEED
5
FFFF
0
ENDSEC
0
SECTION
2
TABLES
0
TABLE
2
VPORT
5
8
100
AcDbSymbolTable
0
ENDTAB
0
TABLE
2
LTYPE
5
5
100
AcDbSymbolTable
0
LTYPE
5
14
100
AcDbSymbolTableRecord
100
AcDbLinetypeTableRecord
2
BYBLOCK
70
0
0
LTYPE
5
15
100
AcDbSymbolTableRecord
100
AcDbLinetypeTableRecord
2
BYLAYER
70
0
0
ENDTAB
0
TABLE
2
LAYER
5
2
100
AcDbSymbolTable
70
2
0
LAYER
5
50
100
AcDbSymbolTableRecord
100
AcDbLayerTableRecord
2
0
70
0
6
CONTINUOUS
0
ENDTAB
0
TABLE
2
STYLE
5
3
100
AcDbSymbolTable
70
1
0
STYLE
5
11
100
AcDbSymbolTableRecord
100
AcDbTextStyleTableRecord
2
STANDARD
70
0
0
ENDTAB
0
TABLE
2
VIEW
5
6
100
AcDbSymbolTable
70
0
0
ENDTAB
0
TABLE
2
UCS
5
7
100
AcDbSymbolTable
70
0
0
ENDTAB
0
TABLE
2
APPID
5
9
100
AcDbSymbolTable
70
2
0
APPID
5
12
100
AcDbSymbolTableRecord
100
AcDbRegAppTableRecord
2
ACAD
70
0
0
ENDTAB
0
TABLE
2
DIMSTYLE
5
A
100
AcDbSymbolTable
70
1
0
ENDTAB
0
TABLE
2
BLOCK_RECORD
5
1
100
AcDbSymbolTable
70
1
0
BLOCK_RECORD
5
1F
100
AcDbSymbolTableRecord
100
AcDbBlockTableRecord
2
*MODEL_SPACE
0
BLOCK_RECORD
5
1B
100
AcDbSymbolTableRecord
100
AcDbBlockTableRecord
2
*PAPER_SPACE
0
ENDTAB
0
ENDSEC
0
SECTION
2
BLOCKS
0
BLOCK
5
20
100
AcDbEntity
100
AcDbBlockBegin
2
*MODEL_SPACE
0
ENDBLK
5
21
100
AcDbEntity
100
AcDbBlockEnd
0
BLOCK
5
1C
100
AcDbEntity
100
AcDbBlockBegin
2
*PAPER_SPACE
0
ENDBLK
5
1D
100
AcDbEntity
100
AcDbBlockEnd
0
ENDSEC
0
SECTION
2
ENTITIES
0
LWPOLYLINE
5
100
100
AcDbEntity
8
0
100
AcDbPolyline
90
88
70
1
43
0.0
10
-106.20756
20
123.23064000000001
10
-106.02976
20
123.54814000000002
10
-104.78516
20
125.78334
10
-102.21975999999999
20
126.69774000000001
10
-98.968559999999997
20
126.11354
10
-95.107759999999999
20
123.37034000000001
10
-91.983560000000011
20
120.60174000000002
10
-90.154759999999996
20
118.16334000000001
10
-89.31656000000001
20
115.39474
10
-88.35136
20
111.07674000000002
10
-87.741759999999999
20
108.15573999999999
10
-84.490560000000002
20
105.31094000000002
10
-81.340959999999995
20
103.63454000000002
10
-79.054959999999994
20
101.50094000000001
10
-77.251559999999998
20
99.265740000000008
10
-74.686160000000001
20
96.827340000000021
10
-71.053960000000004
20
92.356940000000009
10
-71.155559999999994
20
91.061540000000008
10
-105.49636
20
90.782140000000012
10
-105.67416000000001
20
40.261539999999997
10
-105.67416000000001
20
39.448740000000001
10
-134.02055999999999
20
39.448740000000001
10
-134.02055999999999
20
40.261539999999997
10
-133.81736000000001
20
57.965340000000005
10
-134.17295999999999
20
61.191139999999997
10
-136.30655999999999
20
63.604140000000001
10
-139.40536000000003
20
63.680340000000008
10
-141.56435999999999
20
64.823340000000002
10
-144.56155999999999
20
66.626739999999998
10
-149.28595999999999
20
66.779139999999998
10
-152.51176000000001
20
67.972939999999994
10
-156.04236
20
67.617340000000013
10
-164.88156000000001
20
68.557140000000004
10
-169.14876000000004
20
69.166740000000004
10
-173.82236000000003
20
68.277739999999994
10
-177.63236000000003
20
67.617340000000013
10
-181.23916000000003
20
67.845939999999999
10
-182.94095999999999
20
69.319140000000004
10
-187.03036
20
70.106539999999995
10
-190.68796000000003
20
70.792339999999996
10
-191.60236
20
85.244940000000014
10
-192.64375999999999
20
89.689940000000007
10
-193.22796
20
93.398340000000019
10
-196.63156000000001
20
96.319340000000011
10
-196.12356000000003
20
102.61854
10
-195.33616000000001
20
105.84434000000002
10
-195.00596000000002
20
114.83593999999999
10
-191.72936000000004
20
115.90274000000001
10
-189.11315999999999
20
117.80774000000001
10
-188.14796000000001
20
120.24614
10
-185.20156
20
122.65914000000001
10
-180.65495999999999
20
127.30734
10
-176.56556
20
129.99974000000003
10
-170.29176000000004
20
133.78433999999999
10
-168.58996000000002
20
135.63854000000001
10
-167.06596000000002
20
137.18794
10
-166.27856000000003
20
141.50594000000001
10
-163.05276000000003
20
145.23974000000004
10
-162.69716
20
148.41473999999999
10
-163.43376000000004
20
150.57373999999999
10
-164.42436000000001
20
159.33673999999999
10
-164.29736000000003
20
160.12414000000004
10
-163.99256000000003
20
160.60674000000003
10
-163.17975999999999
20
160.88614000000004
10
-160.25876
20
160.47973999999999
10
-158.37916000000001
20
159.53994
10
-154.82316
20
159.00654
10
-150.65755999999999
20
158.67634000000004
10
-148.14295999999999
20
158.54934
10
-145.57756000000001
20
157.07614000000001
10
-143.74876
20
154.71394000000001
10
-142.70735999999999
20
153.18994000000001
10
-142.19936000000001
20
150.82774000000001
10
-141.79295999999999
20
146.71294
10
-140.19275999999999
20
144.37613999999999
10
-138.08456000000001
20
141.68374
10
-135.51916
20
137.92454000000001
10
-132.72515999999999
20
134.19074000000001
10
-130.21055999999999
20
129.79653999999999
10
-127.61976000000001
20
125.50394
10
-125.07975999999999
20
121.26214000000002
10
-123.17476000000001
20
119.73814000000002
10
-121.19356000000002
20
118.51894000000001
10
-117.89156
20
117.76964
10
-115.60556
20
117.76964
10
-111.35106
20
118.40464
10
-109.06506
20
119.92864
10
-107.28706000000001
20
121.83364
0
LWPOLYLINE
5
101
100
AcDbEntity
8
0
100
AcDbPolyline
90
20
70
1
43
0.0
10
-119.57775404452116
20
95.869916333018494
42
-0.47957700083477905
10
-119.6943260716219
20
100.93730000000228
10
-126.28640000000001
20
100.93729999999999
42
-0.41421356237309503
10
-126.78640000000001
20
101.43729999999999
10
-126.78640000000001
20
114.43730000000001
42
-0.41421356237309503
10
-126.28640000000001
20
114.93730000000001
10
-113.2864
20
114.92822400000001
42
-0.41421356237309503
10
-112.78639999999999
20
114.428224
10
-112.78639999999999
20
101.43729999999999
42
-0.41421356237309503
10
-113.2864
20
100.93729999999999
10
-115.50967392837225
20
100.93729999999735
42
-0.48000643522784969
10
-115.62985102894744
20
95.867160089349767
10
-113.2864
20
95.865524000000008
42
-0.41421356237309503
10
-112.78639999999999
20
95.365523999999994
10
-112.78639999999999
20
82.374600000000001
42
-0.41421356237309503
10
-113.2864
20
81.874600000000001
10
-126.28640000000001
20
81.874600000000001
42
-0.41421356237309503
10
-126.78640000000001
20
82.374600000000001
10
-126.78640000000001
20
95.374600000000015
42
-0.41421356237309503
10
-126.28640000000001
20
95.874600000000015
0
LWPOLYLINE
5
102
100
AcDbEntity
8
0
100
AcDbPolyline
90
20
70
1
43
0.0
10
-118.71120583293093
20
57.794729082158668
42
-0.47732385969341629
10
-119.04745190434269
20
62.837300000002912
10
-126.28640000000001
20
62.837299999999992
42
-0.41421356237309503
10
-126.78640000000001
20
63.337299999999999
10
-126.78640000000001
20
76.337299999999999
42
-0.41421356237309503
10
-126.28640000000001
20
76.837299999999999
10
-113.2864
20
76.82822400000002
42
-0.41421356237309503
10
-112.78639999999999
20
76.328224000000006
10
-112.78639999999999
20
63.337299999999999
42
-0.41421356237309503
10
-113.2864
20
62.837299999999999
10
-114.63254809565193
20
62.837299999997924
42
-0.47775254100189252
10
-114.97250635719485
20
57.79211889474692
10
-113.261
20
57.790924000000004
42
-0.41421356237309503
10
-112.761
20
57.290923999999997
10
-112.761
20
44.299999999999997
42
-0.41421356237309503
10
-113.261
20
43.799999999999997
10
-126.26100000000001
20
43.79999999999999
42
-0.41421356237309503
10
-126.76100000000002
20
44.299999999999997
10
-126.76100000000002
20
57.300000000000004
42
-0.41421356237309503
10
-126.26100000000001
20
57.800000000000004
0
LWPOLYLINE
5
103
100
AcDbEntity
8
0
100
AcDbPolyline
90
8
70
1
43
0.0
10
-107.60940000000002
20
110.19550000000001
42
-0.41421356237309503
10
-107.10940000000001
20
110.69550000000001
10
-94.109399999999994
20
110.68642400000002
42
-0.41421356237309503
10
-93.609399999999994
20
110.18642400000002
10
-93.609399999999994
20
97.195499999999996
42
-0.41421356237309503
10
-94.109399999999994
20
96.695499999999996
10
-107.10940000000001
20
96.695499999999996
42
-0.41421356237309503
10
-107.60940000000002
20
97.195499999999996
0
LWPOLYLINE
5
104
100
AcDbEntity
8
0
100
AcDbPolyline
90
8
70
1
43
0.0
10
-164.4118
20
73.873599999999996
42
-0.41421356237309503
10
-164.9118
20
74.373599999999996
10
-164.9118
20
87.37360000000001
42
-0.41421356237309503
10
-164.4118
20
87.87360000000001
10
-151.4118
20
87.864524000000017
42
-0.41421356237309503
10
-150.9118
20
87.364524000000017
10
-150.91180000000003
20
74.373599999999996
42
-0.41421356237309503
10
-151.4118
20
73.873599999999996
0
LWPOLYLINE
5
105
100
AcDbEntity
8
0
100
AcDbPolyline
90
8
70
1
43
0.0
10
-151.4118
20
106.93992400000002
42
-0.41421356237309503
10
-150.9118
20
106.43992400000002
10
-150.9118
20
93.449000000000012
42
-0.41421356237309503
10
-151.4118
20
92.948999999999998
10
-164.4118
20
92.948999999999998
42
-0.41421356237309503
10
-164.9118
20
93.449000000000012
10
-164.9118
20
106.449
42
-0.41421356237309503
10
-164.4118
20
106.94900000000001
0
LWPOLYLINE
5
106
100
AcDbEntity
8
0
100
AcDbPolyline
90
20
70
1
43
0.0
10
-138.1587436463993
20
87.881306624710845
42
-0.47198092479625414
10
-138.05683784714094
20
92.898200000001211
10
-145.29830000000001
20
92.898200000000003
42
-0.41421356237309503
10
-145.79830000000004
20
93.398200000000017
10
-145.79830000000004
20
106.3982
42
-0.41421356237309503
10
-145.29830000000001
20
106.8982
10
-132.29830000000001
20
106.88912400000001
42
-0.41421356237309503
10
-131.79830000000001
20
106.38912400000001
10
-131.79830000000001
20
93.398200000000017
42
-0.41421356237309503
10
-132.29830000000001
20
92.898200000000003
10
-134.02796215285289
20
92.898199999996351
42
-0.47240783446949075
10
-133.9295023986752
20
87.878353963676091
10
-132.31100000000001
20
87.877224000000012
42
-0.41421356237309503
10
-131.81100000000001
20
87.377224000000012
10
-131.81100000000001
20
74.386300000000006
42
-0.41421356237309503
10
-132.31100000000001
20
73.886300000000006
10
-145.31100000000004
20
73.886300000000006
42
-0.41421356237309503
10
-145.81100000000004
20
74.386300000000006
10
-145.81100000000004
20
87.386300000000006
42
-0.41421356237309503
10
-145.31100000000004
20
87.886300000000006
0
LWPOLYLINE
5
107
100
AcDbEntity
8
0
100
AcDbPolyline
90
18
70
1
43
0.0
10
-152.40387404344989
20
125.93987868614994
42
-0.47992477335597433
10
-152.39841343326358
20
131.01090000000448
10
-158.06180000000001
20
131.01089999999999
42
-0.41421356237309503
10
-158.56180000000001
20
131.51089999999999
10
-158.56180000000001
20
144.51089999999999
42
-0.41421356237309503
10
-158.06180000000001
20
145.01090000000002
10
-145.06180000000001
20
145.00182400000003
42
-0.41421356237309503
10
-144.56180000000001
20
144.501824
10
-144.56180000000001
20
131.51089999999999
42
-0.41421356237309503
10
-145.06180000000001
20
131.01089999999999
10
-148.33758656673032
20
131.01089999999962
42
-0.76305690309474161
10
-150.8228999999906
20
125.25519347576662
10
-150.8229
20
112.44820000000001
42
-0.41421356237309503
10
-151.3229
20
111.9482
10
-164.3229
20
111.9482
42
-0.41421356237309503
10
-164.82290000000003
20
112.44820000000001
10
-164.82290000000003
20
125.44820000000001
42
-0.41421356237309503
10
-164.3229
20
125.94820000000001
0
LWPOLYLINE
5
108
100
AcDbEntity
8
0
100
AcDbPolyline
90
8
70
1
43
0.0
10
-132.34909999999999
20
125.97722400000002
42
-0.41421356237309503
10
-131.84909999999999
20
125.47722400000001
10
-131.84909999999999
20
112.4863
42
-0.41421356237309503
10
-132.34909999999999
20
111.9863
10
-145.34909999999999
20
111.9863
42
-0.41421356237309503
10
-145.84910000000002
20
112.4863
10
-145.84910000000002
20
125.48630000000001
42
-0.41421356237309503
10
-145.34909999999999
20
125.98630000000001
0
LWPOLYLINE
5
109
100
AcDbEntity
8
0
100
AcDbPolyline
90
20
70
1
43
0.0
10
-176.85391067006944
20
96.12399554320065
42
-0.48365624692236908
10
-176.68332772723301
20
101.21670000000405
10
-183.44909999999999
20
101.2167
42
-0.41421356237309503
10
-183.94909999999999
20
101.7167
10
-183.94909999999999
20
114.71670000000002
42
-0.41421356237309503
10
-183.44909999999999
20
115.21670000000002
10
-170.44909999999999
20
115.20762400000001
42
-0.41421356237309503
10
-169.94909999999999
20
114.707624
10
-169.94909999999999
20
101.7167
42
-0.41421356237309503
10
-170.44909999999999
20
101.2167
10
-172.82067227276056
20
101.21669999999925
42
-0.48408705377518835
10
-172.65355255099428
20
96.121063047025061
10
-170.44909999999999
20
96.119524000000013
42
-0.41421356237309503
10
-169.94909999999999
20
95.619524000000013
10
-169.94909999999999
20
82.62860000000002
42
-0.41421356237309503
10
-170.44909999999999
20
82.128600000000006
10
-183.44909999999999
20
82.128600000000006
42
-0.41421356237309503
10
-183.94909999999999
20
82.62860000000002
10
-183.94909999999999
20
95.628600000000006
42
-0.41421356237309503
10
-183.44909999999999
20
96.128600000000006
0
LWPOLYLINE
5
110
100
AcDbEntity
8
0
100
AcDbPolyline
90
88
70
1
43
0.0
10
-106.20756
20
123.23064000000001
10
-106.02976
20
123.54814000000002
10
-104.78516
20
125.78334
10
-102.21975999999999
20
126.69774000000001
10
-98.968559999999997
20
126.11354
10
-95.107759999999999
20
123.37034000000001
10
-91.983560000000011
20
120.60174000000002
10
-90.154759999999996
20
118.16334000000001
10
-89.31656000000001
20
115.39474
10
-88.35136
20
111.07674000000002
10
-87.741759999999999
20
108.15573999999999
10
-84.490560000000002
20
105.31094000000002
10
-81.340959999999995
20
103.63454000000002
10
-79.054959999999994
20
101.50094000000001
10
-77.251559999999998
20
99.265740000000008
10
-74.686160000000001
20
96.827340000000021
10
-71.053960000000004
20
92.356940000000009
10
-71.155559999999994
20
91.061540000000008
10
-105.49636
20
90.782140000000012
10
-105.67416000000001
20
40.261539999999997
10
-105.67416000000001
20
39.448740000000001
10
-134.02055999999999
20
39.448740000000001
10
-134.02055999999999
20
40.261539999999997
10
-133.81736000000001
20
57.965340000000005
10
-134.17295999999999
20
61.191139999999997
10
-136.30655999999999
20
63.604140000000001
10
-139.40536000000003
20
63.680340000000008
10
-141.56435999999999
20
64.823340000000002
10
-144.56155999999999
20
66.626739999999998
10
-149.28595999999999
20
66.779139999999998
10
-152.51176000000001
20
67.972939999999994
10
-156.04236
20
67.617340000000013
10
-164.88156000000001
20
68.557140000000004
10
-169.14876000000004
20
69.166740000000004
10
-173.82236000000003
20
68.277739999999994
10
-177.63236000000003
20
67.617340000000013
10
-181.23916000000003
20
67.845939999999999
10
-182.94095999999999
20
69.319140000000004
10
-187.03036
20
70.106539999999995
10
-190.68796000000003
20
70.792339999999996
10
-191.60236
20
85.244940000000014
10
-192.64375999999999
20
89.689940000000007
10
-193.22796
20
93.398340000000019
10
-196.63156000000001
20
96.319340000000011
10
-196.12356000000003
20
102.61854
10
-195.33616000000001
20
105.84434000000002
10
-195.00596000000002
20
114.83593999999999
10
-191.72936000000004
20
115.90274000000001
10
-189.11315999999999
20
117.80774000000001
10
-188.14796000000001
20
120.24614
10
-185.20156
20
122.65914000000001
10
-180.65495999999999
20
127.30734
10
-176.56556
20
129.99974000000003
10
-170.29176000000004
20
133.78433999999999
10
-168.58996000000002
20
135.63854000000001
10
-167.06596000000002
20
137.18794
10
-166.27856000000003
20
141.50594000000001
10
-163.05276000000003
20
145.23974000000004
10
-162.69716
20
148.41473999999999
10
-163.43376000000004
20
150.57373999999999
10
-164.42436000000001
20
159.33673999999999
10
-164.29736000000003
20
160.12414000000004
10
-163.99256000000003
20
160.60674000000003
10
-163.17975999999999
20
160.88614000000004
10
-160.25876
20
160.47973999999999
10
-158.37916000000001
20
159.53994
10
-154.82316
20
159.00654
10
-150.65755999999999
20
158.67634000000004
10
-148.14295999999999
20
158.54934
10
-145.57756000000001
20
157.07614000000001
10
-143.74876
20
154.71394000000001
10
-142.70735999999999
20
153.18994000000001
10
-142.19936000000001
20
150.82774000000001
10
-141.79295999999999
20
146.71294
10
-140.19275999999999
20
144.37613999999999
10
-138.08456000000001
20
141.68374
10
-135.51916
20
137.92454000000001
10
-132.72515999999999
20
134.19074000000001
10
-130.21055999999999
20
129.79653999999999
10
-127.61976000000001
20
125.50394
10
-125.07975999999999
20
121.26214000000002
10
-123.17476000000001
20
119.73814000000002
10
-121.19356000000002
20
118.51894000000001
10
-117.89156
20
117.76964
10
-115.60556
20
117.76964
10
-111.35106
20
118.40464
10
-109.06506
20
119.92864
10
-107.28706000000001
20
121.83364
0
LWPOLYLINE
5
111
100
AcDbEntity
8
0
100
AcDbPolyline
90
20
70
1
43
0.0
10
-119.57775404452116
20
95.869916333018494
42
-0.47957700083477905
10
-119.6943260716219
20
100.93730000000228
10
-126.28640000000001
20
100.93729999999999
42
-0.41421356237309503
10
-126.78640000000001
20
101.43729999999999
10
-126.78640000000001
20
114.43730000000001
42
-0.41421356237309503
10
-126.28640000000001
20
114.93730000000001
10
-113.2864
20
114.92822400000001
42
-0.41421356237309503
10
-112.78639999999999
20
114.428224
10
-112.78639999999999
20
101.43729999999999
42
-0.41421356237309503
10
-113.2864
20
100.93729999999999
10
-115.50967392837225
20
100.93729999999735
42
-0.48000643522784969
10
-115.62985102894744
20
95.867160089349767
10
-113.2864
20
95.865524000000008
42
-0.41421356237309503
10
-112.78639999999999
20
95.365523999999994
10
-112.78639999999999
20
82.374600000000001
42
-0.41421356237309503
10
-113.2864
20
81.874600000000001
10
-126.28640000000001
20
81.874600000000001
42
-0.41421356237309503
10
-126.78640000000001
20
82.374600000000001
10
-126.78640000000001
20
95.374600000000015
42
-0.41421356237309503
10
-126.28640000000001
20
95.874600000000015
0
LWPOLYLINE
5
112
100
AcDbEntity
8
0
100
AcDbPolyline
90
20
70
1
43
0.0
10
-118.71120583293093
20
57.794729082158668
42
-0.47732385969341629
10
-119.04745190434269
20
62.837300000002912
10
-126.28640000000001
20
62.837299999999992
42
-0.41421356237309503
10
-126.78640000000001
20
63.337299999999999
10
-126.78640000000001
20
76.337299999999999
42
-0.41421356237309503
10
-126.28640000000001
20
76.837299999999999
10
-113.2864
20
76.82822400000002
42
-0.41421356237309503
10
-112.78639999999999
20
76.328224000000006
10
-112.78639999999999
20
63.337299999999999
42
-0.41421356237309503
10
-113.2864
20
62.837299999999999
10
-114.63254809565193
20
62.837299999997924
42
-0.47775254100189252
10
-114.97250635719485
20
57.79211889474692
10
-113.261
20
57.790924000000004
42
-0.41421356237309503
10
-112.761
20
57.290923999999997
10
-112.761
20
44.299999999999997
42
-0.41421356237309503
10
-113.261
20
43.799999999999997
10
-126.26100000000001
20
43.79999999999999
42
-0.41421356237309503
10
-126.76100000000002
20
44.299999999999997
10
-126.76100000000002
20
57.300000000000004
42
-0.41421356237309503
10
-126.26100000000001
20
57.800000000000004
0
LWPOLYLINE
5
113
100
AcDbEntity
8
0
100
AcDbPolyline
90
8
70
1
43
0.0
10
-107.60940000000002
20
110.19550000000001
42
-0.41421356237309503
10
-107.10940000000001
20
110.69550000000001
10
-94.109399999999994
20
110.68642400000002
42
-0.41421356237309503
10
-93.609399999999994
20
110.18642400000002
10
-93.609399999999994
20
97.195499999999996
42
-0.41421356237309503
10
-94.109399999999994
20
96.695499999999996
10
-107.10940000000001
20
96.695499999999996
42
-0.41421356237309503
10
-107.60940000000002
20
97.195499999999996
0
LWPOLYLINE
5
114
100
AcDbEntity
8
0
100
AcDbPolyline
90
8
70
1
43
0.0
10
-164.4118
20
73.873599999999996
42
-0.41421356237309503
10
-164.9118
20
74.373599999999996
10
-164.9118
20
87.37360000000001
42
-0.41421356237309503
10
-164.4118
20
87.87360000000001
10
-151.4118
20
87.864524000000017
42
-0.41421356237309503
10
-150.9118
20
87.364524000000017
10
-150.91180000000003
20
74.373599999999996
42
-0.41421356237309503
10
-151.4118
20
73.873599999999996
0
LWPOLYLINE
5
115
100
AcDbEntity
8
0
100
AcDbPolyline
90
8
70
1
43
0.0
10
-151.4118
20
106.93992400000002
42
-0.41421356237309503
10
-150.9118
20
106.43992400000002
10
-150.9118
20
93.449000000000012
42
-0.41421356237309503
10
-151.4118
20
92.948999999999998
10
-164.4118
20
92.948999999999998
42
-0.41421356237309503
10
-164.9118
20
93.449000000000012
10
-164.9118
20
106.449
42
-0.41421356237309503
10
-164.4118
20
106.94900000000001
0
LWPOLYLINE
5
116
100
AcDbEntity
8
0
100
AcDbPolyline
90
20
70
1
43
0.0
10
-138.1587436463993
20
87.881306624710845
42
-0.47198092479625414
10
-138.05683784714094
20
92.898200000001211
10
-145.29830000000001
20
92.898200000000003
42
-0.41421356237309503
10
-145.79830000000004
20
93.398200000000017
10
-145.79830000000004
20
106.3982
42
-0.41421356237309503
10
-145.29830000000001
20
106.8982
10
-132.29830000000001
20
106.88912400000001
42
-0.41421356237309503
10
-131.79830000000001
20
106.38912400000001
10
-131.79830000000001
20
93.398200000000017
42
-0.41421356237309503
10
-132.29830000000001
20
92.898200000000003
10
-134.02796215285289
20
92.898199999996351
42
-0.47240783446949075
10
-133.9295023986752
20
87.878353963676091
10
-132.31100000000001
20
87.877224000000012
42
-0.41421356237309503
10
-131.81100000000001
20
87.377224000000012
10
-131.81100000000001
20
74.386300000000006
42
-0.41421356237309503
10
-132.31100000000001
20
73.886300000000006
10
-145.31100000000004
20
73.886300000000006
42
-0.41421356237309503
10
-145.81100000000004
20
74.386300000000006
10
-145.81100000000004
20
87.386300000000006
42
-0.41421356237309503
10
-145.31100000000004
20
87.886300000000006
0
LWPOLYLINE
5
117
100
AcDbEntity
8
0
100
AcDbPolyline
90
18
70
1
43
0.0
10
-152.40387404344989
20
125.93987868614994
42
-0.47992477335597433
10
-152.39841343326358
20
131.01090000000448
10
-158.06180000000001
20
131.01089999999999
42
-0.41421356237309503
10
-158.56180000000001
20
131.51089999999999
10
-158.56180000000001
20
144.51089999999999
42
-0.41421356237309503
10
-158.06180000000001
20
145.01090000000002
10
-145.06180000000001
20
145.00182400000003
42
-0.41421356237309503
10
-144.56180000000001
20
144.501824
10
-144.56180000000001
20
131.51089999999999
42
-0.41421356237309503
10
-145.06180000000001
20
131.01089999999999
10
-148.33758656673032
20
131.01089999999962
42
-0.76305690309474161
10
-150.8228999999906
20
125.25519347576662
10
-150.8229
20
112.44820000000001
42
-0.41421356237309503
10
-151.3229
20
111.9482
10
-164.3229
20
111.9482
42
-0.41421356237309503
10
-164.82290000000003
20
112.44820000000001
10
-164.82290000000003
20
125.44820000000001
42
-0.41421356237309503
10
-164.3229
20
125.94820000000001
0
LWPOLYLINE
5
118
100
AcDbEntity
8
0
100
AcDbPolyline
90
8
70
1
43
0.0
10
-132.34909999999999
20
125.97722400000002
42
-0.41421356237309503
10
-131.84909999999999
20
125.47722400000001
10
-131.84909999999999
20
112.4863
42
-0.41421356237309503
10
-132.34909999999999
20
111.9863
10
-145.34909999999999
20
111.9863
42
-0.41421356237309503
10
-145.84910000000002
20
112.4863
10
-145.84910000000002
20
125.48630000000001
42
-0.41421356237309503
10
-145.34909999999999
20
125.98630000000001
0
LWPOLYLINE
5
119
100
AcDbEntity
8
0
100
AcDbPolyline
90
20
70
1
43
0.0
10
-176.85391067006944
20
96.12399554320065
42
-0.48365624692236908
10
-176.68332772723301
20
101.21670000000405
10
-183.44909999999999
20
101.2167
42
-0.41421356237309503
10
-183.94909999999999
20
101.7167
10
-183.94909999999999
20
114.71670000000002
42
-0.41421356237309503
10
-183.44909999999999
20
115.21670000000002
10
-170.44909999999999
20
115.20762400000001
42
-0.41421356237309503
10
-169.94909999999999
20
114.707624
10
-169.94909999999999
20
101.7167
42
-0.41421356237309503
10
-170.44909999999999
20
101.2167
10
-172.82067227276056
20
101.21669999999925
42
-0.48408705377518835
10
-172.65355255099428
20
96.121063047025061
10
-170.44909999999999
20
96.119524000000013
42
-0.41421356237309503
10
-169.94909999999999
20
95.619524000000013
10
-169.94909999999999
20
82.62860000000002
42
-0.41421356237309503
10
-170.44909999999999
20
82.128600000000006
10
-183.44909999999999
20
82.128600000000006
42
-0.41421356237309503
10
-183.94909999999999
20
82.62860000000002
10
-183.94909999999999
20
95.628600000000006
42
-0.41421356237309503
10
-183.44909999999999
20
96.128600000000006
0
ENDSEC
0
SECTION
2
OBJECTS
0
DICTIONARY
5
C
100
AcDbDictionary
3
ACAD_GROUP
350
D
3
ACAD_MLINESTYLE
350
17
0
DICTIONARY
5
D
100
AcDbDictionary
0
DICTIONARY
5
1A
330
C
100
AcDbDictionary
0
DICTIONARY
5
17
100
AcDbDictionary
0
ENDSEC
0
EOF
