0
SECTION
2
HEADER
9
$INSUNITS
70
4
9
$ACADVER
1
AC1014
9
$HANDSEED
5
FFFF
0
ENDSEC
0
SECTION
2
TABLES
0
TABLE
2
VPORT
5
8
100
AcDbSymbolTable
0
ENDTAB
0
TABLE
2
LTYPE
5
5
100
AcDbSymbolTable
0
LTYPE
5
14
100
AcDbSymbolTableRecord
100
AcDbLinetypeTableRecord
2
BYBLOCK
70
0
0
LTYPE
5
15
100
AcDbSymbolTableRecord
100
AcDbLinetypeTableRecord
2
BYLAYER
70
0
0
ENDTAB
0
TABLE
2
LAYER
5
2
100
AcDbSymbolTable
70
2
0
LAYER
5
50
100
AcDbSymbolTableRecord
100
AcDbLayerTableRecord
2
0
70
0
6
CONTINUOUS
0
ENDTAB
0
TABLE
2
STYLE
5
3
100
AcDbSymbolTable
70
1
0
STYLE
5
11
100
AcDbSymbolTableRecord
100
AcDbTextStyleTableRecord
2
STANDARD
70
0
0
ENDTAB
0
TABLE
2
VIEW
5
6
100
AcDbSymbolTable
70
0
0
ENDTAB
0
TABLE
2
UCS
5
7
100
AcDbSymbolTable
70
0
0
ENDTAB
0
TABLE
2
APPID
5
9
100
AcDbSymbolTable
70
2
0
APPID
5
12
100
AcDbSymbolTableRecord
100
AcDbRegAppTableRecord
2
ACAD
70
0
0
ENDTAB
0
TABLE
2
DIMSTYLE
5
A
100
AcDbSymbolTable
70
1
0
ENDTAB
0
TABLE
2
BLOCK_RECORD
5
1
100
AcDbSymbolTable
70
1
0
BLOCK_RECORD
5
1F
100
AcDbSymbolTableRecord
100
AcDbBlockTableRecord
2
*MODEL_SPACE
0
BLOCK_RECORD
5
1B
100
AcDbSymbolTableRecord
100
AcDbBlockTableRecord
2
*PAPER_SPACE
0
ENDTAB
0
ENDSEC
0
SECTION
2
BLOCKS
0
BLOCK
5
20
100
AcDbEntity
100
AcDbBlockBegin
2
*MODEL_SPACE
0
ENDBLK
5
21
100
AcDbEntity
100
AcDbBlockEnd
0
BLOCK
5
1C
100
AcDbEntity
100
AcDbBlockBegin
2
*PAPER_SPACE
0
ENDBLK
5
1D
100
AcDbEntity
100
AcDbBlockEnd
0
ENDSEC
0
SECTION
2
ENTITIES
0
LWPOLYLINE
5
100
100
AcDbEntity
8
0
100
AcDbPolyline
90
88
70
1
43
0.0
10
-106.20756
20
123.23064000000001
10
-106.02976
20
123.54814000000002
10
-104.78516
20
125.78334
10
-102.21975999999999
20
126.69774000000001
10
-98.968559999999997
20
126.11354
10
-95.107759999999999
20
123.37034000000001
10
-91.983560000000011
20
120.60174000000002
10
-90.154759999999996
20
118.16334000000001
10
-89.31656000000001
20
115.39474
10
-88.35136
20
111.07674000000002
10
-87.741759999999999
20
108.15573999999999
10
-84.490560000000002
20
105.31094000000002
10
-81.340959999999995
20
103.63454000000002
10
-79.054959999999994
20
101.50094000000001
10
-77.251559999999998
20
99.265740000000008
10
-74.686160000000001
20
96.827340000000021
10
-71.053960000000004
20
92.356940000000009
10
-71.155559999999994
20
91.061540000000008
10
-105.49636
20
90.782140000000012
10
-105.67416000000001
20
40.261539999999997
10
-105.67416000000001
20
39.448740000000001
10
-134.02055999999999
20
39.448740000000001
10
-134.02055999999999
20
40.261539999999997
10
-133.81736000000001
20
57.965340000000005
10
-134.17295999999999
20
61.191139999999997
10
-136.30655999999999
20
63.604140000000001
10
-139.40536000000003
20
63.680340000000008
10
-141.56435999999999
20
64.823340000000002
10
-144.56155999999999
20
66.626739999999998
10
-149.28595999999999
20
66.779139999999998
10
-152.51176000000001
20
67.972939999999994
10
-156.04236
20
67.617340000000013
10
-164.88156000000001
20
68.557140000000004
10
-169.14876000000004
20
69.166740000000004
10
-173.82236000000003
20
68.277739999999994
10
-177.63236000000003
20
67.617340000000013
10
-181.23916000000003
20
67.845939999999999
10
-182.94095999999999
20
69.319140000000004
10
-187.03036
20
70.106539999999995
10
-190.68796000000003
20
70.792339999999996
10
-191.60236
20
85.244940000000014
10
-192.64375999999999
20
89.689940000000007
10
-193.22796
20
93.398340000000019
10
-196.63156000000001
20
96.319340000000011
10
-196.12356000000003
20
102.61854
10
-195.33616000000001
20
105.84434000000002
10
-195.00596000000002
20
114.83593999999999
10
-191.72936000000004
20
115.90274000000001
10
-189.11315999999999
20
117.80774000000001
10
-188.14796000000001
20
120.24614
10
-185.20156
20
122.65914000000001
10
-180.65495999999999
20
127.30734
10
-176.56556
20
129.99974000000003
10
-170.29176000000004
20
133.78433999999999
10
-168.58996000000002
20
135.63854000000001
10
-167.06596000000002
20
137.18794
10
-166.27856000000003
20
141.50594000000001
10
-163.05276000000003
20
145.23974000000004
10
-162.69716
20
148.41473999999999
10
-163.43376000000004
20
150.57373999999999
10
-164.42436000000001
20
159.33673999999999
10
-164.29736000000003
20
160.12414000000004
10
-163.99256000000003
20
160.60674000000003
10
-163.17975999999999
20
160.88614000000004
10
-160.25876
20
160.47973999999999
10
-158.37916000000001
20
159.53994
10
-154.82316
20
159.00654
10
-150.65755999999999
20
158.67634000000004
10
-148.14295999999999
20
158.54934
10
-145.57756000000001
20
157.07614000000001
10
-143.74876
20
154.71394000000001
10
-142.70735999999999
20
153.18994000000001
10
-142.19936000000001
20
150.82774000000001
10
-141.79295999999999
20
146.71294
10
-140.19275999999999
20
144.37613999999999
10
-138.08456000000001
20
141.68374
10
-135.51916
20
137.92454000000001
10
-132.72515999999999
20
134.19074000000001
10
-130.21055999999999
20
129.79653999999999
10
-127.61976000000001
20
125.50394
10
-125.07975999999999
20
121.26214000000002
10
-123.17476000000001
20
119.73814000000002
10
-121.19356000000002
20
118.51894000000001
10
-117.89156
20
117.76964
10
-115.60556
20
117.76964
10
-111.35106
20
118.40464
10
-109.06506
20
119.92864
10
-107.28706000000001
20
121.83364
0
LWPOLYLINE
5
101
100
AcDbEntity
8
0
100
AcDbPolyline
90
88
70
1
43
0.0
10
-106.20756
20
123.23064000000001
10
-106.02976
20
123.54814000000002
10
-104.78516
20
125.78334
10
-102.21975999999999
20
126.69774000000001
10
-98.968559999999997
20
126.11354
10
-95.107759999999999
20
123.37034000000001
10
-91.983560000000011
20
120.60174000000002
10
-90.154759999999996
20
118.16334000000001
10
-89.31656000000001
20
115.39474
10
-88.35136
20
111.07674000000002
10
-87.741759999999999
20
108.15573999999999
10
-84.490560000000002
20
105.31094000000002
10
-81.340959999999995
20
103.63454000000002
10
-79.054959999999994
20
101.50094000000001
10
-77.251559999999998
20
99.265740000000008
10
-74.686160000000001
20
96.827340000000021
10
-71.053960000000004
20
92.356940000000009
10
-71.155559999999994
20
91.061540000000008
10
-105.49636
20
90.782140000000012
10
-105.67416000000001
20
40.261539999999997
10
-105.67416000000001
20
39.448740000000001
10
-134.02055999999999
20
39.448740000000001
10
-134.02055999999999
20
40.261539999999997
10
-133.81736000000001
20
57.965340000000005
10
-134.17295999999999
20
61.191139999999997
10
-136.30655999999999
20
63.604140000000001
10
-139.40536000000003
20
63.680340000000008
10
-141.56435999999999
20
64.823340000000002
10
-144.56155999999999
20
66.626739999999998
10
-149.28595999999999
20
66.779139999999998
10
-152.51176000000001
20
67.972939999999994
10
-156.04236
20
67.617340000000013
10
-164.88156000000001
20
68.557140000000004
10
-169.14876000000004
20
69.166740000000004
10
-173.82236000000003
20
68.277739999999994
10
-177.63236000000003
20
67.617340000000013
10
-181.23916000000003
20
67.845939999999999
10
-182.94095999999999
20
69.319140000000004
10
-187.03036
20
70.106539999999995
10
-190.68796000000003
20
70.792339999999996
10
-191.60236
20
85.244940000000014
10
-192.64375999999999
20
89.689940000000007
10
-193.22796
20
93.398340000000019
10
-196.63156000000001
20
96.319340000000011
10
-196.12356000000003
20
102.61854
10
-195.33616000000001
20
105.84434000000002
10
-195.00596000000002
20
114.83593999999999
10
-191.72936000000004
20
115.90274000000001
10
-189.11315999999999
20
117.80774000000001
10
-188.14796000000001
20
120.24614
10
-185.20156
20
122.65914000000001
10
-180.65495999999999
20
127.30734
10
-176.56556
20
129.99974000000003
10
-170.29176000000004
20
133.78433999999999
10
-168.58996000000002
20
135.63854000000001
10
-167.06596000000002
20
137.18794
10
-166.27856000000003
20
141.50594000000001
10
-163.05276000000003
20
145.23974000000004
10
-162.69716
20
148.41473999999999
10
-163.43376000000004
20
150.57373999999999
10
-164.42436000000001
20
159.33673999999999
10
-164.29736000000003
20
160.12414000000004
10
-163.99256000000003
20
160.60674000000003
10
-163.17975999999999
20
160.88614000000004
10
-160.25876
20
160.47973999999999
10
-158.37916000000001
20
159.53994
10
-154.82316
20
159.00654
10
-150.65755999999999
20
158.67634000000004
10
-148.14295999999999
20
158.54934
10
-145.57756000000001
20
157.07614000000001
10
-143.74876
20
154.71394000000001
10
-142.70735999999999
20
153.18994000000001
10
-142.19936000000001
20
150.82774000000001
10
-141.79295999999999
20
146.71294
10
-140.19275999999999
20
144.37613999999999
10
-138.08456000000001
20
141.68374
10
-135.51916
20
137.92454000000001
10
-132.72515999999999
20
134.19074000000001
10
-130.21055999999999
20
129.79653999999999
10
-127.61976000000001
20
125.50394
10
-125.07975999999999
20
121.26214000000002
10
-123.17476000000001
20
119.73814000000002
10
-121.19356000000002
20
118.51894000000001
10
-117.89156
20
117.76964
10
-115.60556
20
117.76964
10
-111.35106
20
118.40464
10
-109.06506
20
119.92864
10
-107.28706000000001
20
121.83364
0
ENDSEC
0
SECTION
2
OBJECTS
0
DICTIONARY
5
C
100
AcDbDictionary
3
ACAD_GROUP
350
D
3
ACAD_MLINESTYLE
350
17
0
DICTIONARY
5
D
100
AcDbDictionary
0
DICTIONARY
5
1A
330
C
100
AcDbDictionary
0
DICTIONARY
5
17
100
AcDbDictionary
0
ENDSEC
0
EOF
